<svg width="282" height="141" viewBox="0 0 282 141" fill="none" xmlns="http://www.w3.org/2000/svg">
<path d="M41.8714 50.8202C41.8714 52.0835 42.503 53.0762 43.7664 53.7981C45.0899 54.52 47.1354 55.3021 49.9027 56.1443C53.2115 57.2272 55.9187 58.28 58.0243 59.3027C60.1901 60.3255 62.055 61.9197 63.6192 64.0855C65.2435 66.2512 66.0557 69.0787 66.0557 72.568C66.0557 83.7578 58.7763 89.3527 44.2176 89.3527C41.8112 89.3527 38.8634 89.1421 35.3741 88.721C31.945 88.2999 28.8166 87.7584 25.9891 87.0966C26.1094 85.8333 26.3501 83.9984 26.711 81.592C27.1322 79.1255 27.5232 77.2906 27.8842 76.0874C29.9898 76.3882 33.1482 76.7491 37.3594 77.1703C41.6307 77.5914 44.8493 77.8019 47.015 77.8019C48.2784 77.8019 49.0304 77.7117 49.271 77.5312C49.632 77.2906 49.9027 76.8995 50.0832 76.3581C50.3238 75.7565 50.4442 75.2451 50.4442 74.824C50.4442 73.6208 49.8726 72.7184 48.7296 72.1168C47.5866 71.4551 45.6314 70.673 42.864 69.7706C39.5552 68.7479 36.8179 67.6951 34.6522 66.6122C32.4864 65.5293 30.5914 63.8448 28.967 61.5587C27.3427 59.2727 26.5306 56.2647 26.5306 52.5347C26.5306 49.8877 27.1322 47.3008 28.3354 44.7741C29.5386 42.1872 30.7718 40.4426 32.0352 39.5402C32.9978 38.8784 34.983 38.2467 37.991 37.6451C40.999 37.0435 43.8266 36.7427 46.4736 36.7427C53.2115 36.7427 58.7162 37.3744 62.9875 38.6378C62.9274 39.841 62.7168 41.4954 62.3558 43.601C62.055 45.7066 61.7242 47.6317 61.3632 49.3763L59.2877 49.2861C51.4669 48.7447 46.4736 48.4739 44.3078 48.4739C43.4054 48.4739 42.8941 48.504 42.7738 48.5642C42.5331 48.6845 42.3226 48.9552 42.1421 49.3763C41.9616 49.7975 41.8714 50.2787 41.8714 50.8202ZM99.4381 88.36H83.1949V48.2032H68.6662V36.9232H113.967V48.2032H99.4381V88.36ZM119.253 36.9232H135.496V88.36H119.253V36.9232ZM210.957 88.36H195.796L194.623 60.0247C194.443 54.4298 194.232 50.1885 193.992 47.3008H193.721C192.999 49.5869 192.157 53.1363 191.194 57.9491L190.743 60.2051L184.517 88.36H169.357L164.123 63.0026L163.22 58.4906C161.957 52.8957 161.085 49.1658 160.603 47.3008H160.333C160.092 50.3088 159.881 55.2119 159.701 62.0099C159.641 62.4311 159.611 63.0928 159.611 63.9952L158.799 88.36H143.548L145.714 36.9232H171.522L175.944 59.1223L177.027 65.0781C177.508 63.2131 177.959 61.1376 178.381 58.8515L182.532 36.9232H208.881L210.957 88.36ZM233.72 50.8202C233.72 52.0835 234.351 53.0762 235.615 53.7981C236.938 54.52 238.984 55.3021 241.751 56.1443C245.06 57.2272 247.767 58.28 249.873 59.3027C252.038 60.3255 253.903 61.9197 255.468 64.0855C257.092 66.2512 257.904 69.0787 257.904 72.568C257.904 83.7578 250.625 89.3527 236.066 89.3527C233.66 89.3527 230.712 89.1421 227.222 88.721C223.793 88.2999 220.665 87.7584 217.837 87.0966C217.958 85.8333 218.198 83.9984 218.559 81.592C218.981 79.1255 219.372 77.2906 219.733 76.0874C221.838 76.3882 224.997 76.7491 229.208 77.1703C233.479 77.5914 236.698 77.8019 238.863 77.8019C240.127 77.8019 240.879 77.7117 241.119 77.5312C241.48 77.2906 241.751 76.8995 241.932 76.3581C242.172 75.7565 242.293 75.2451 242.293 74.824C242.293 73.6208 241.721 72.7184 240.578 72.1168C239.435 71.4551 237.48 70.673 234.712 69.7706C231.404 68.7479 228.666 67.6951 226.501 66.6122C224.335 65.5293 222.44 63.8448 220.815 61.5587C219.191 59.2727 218.379 56.2647 218.379 52.5347C218.379 49.8877 218.981 47.3008 220.184 44.7741C221.387 42.1872 222.62 40.4426 223.884 39.5402C224.846 38.8784 226.831 38.2467 229.839 37.6451C232.847 37.0435 235.675 36.7427 238.322 36.7427C245.06 36.7427 250.565 37.3744 254.836 38.6378C254.776 39.841 254.565 41.4954 254.204 43.601C253.903 45.7066 253.573 47.6317 253.212 49.3763L251.136 49.2861C243.315 48.7447 238.322 48.4739 236.156 48.4739C235.254 48.4739 234.742 48.504 234.622 48.5642C234.381 48.6845 234.171 48.9552 233.99 49.3763C233.81 49.7975 233.72 50.2787 233.72 50.8202Z" fill="#424651"/>
<path opacity="0.65" d="M282 58.28H0V71.44H282V58.28Z" fill="#F56161"/>
</svg>
