<svg width="89" height="167" viewBox="0 0 89 167" fill="none" xmlns="http://www.w3.org/2000/svg">
<path d="M40.6552 60.1912C40.6552 61.6875 41.4028 62.8632 42.898 63.7183C44.4644 64.5733 46.8852 65.4996 50.1604 66.4971C54.0764 67.7797 57.2804 69.0266 59.7724 70.2379C62.3356 71.4493 64.5428 73.3375 66.394 75.9026C68.3164 78.4677 69.2776 81.8166 69.2776 85.9493C69.2776 99.2024 60.6624 105.829 43.432 105.829C40.584 105.829 37.0952 105.58 32.9656 105.081C28.9072 104.582 25.2048 103.941 21.8584 103.157C22.0008 101.661 22.2856 99.4874 22.7128 96.6373C23.2112 93.7159 23.674 91.5427 24.1012 90.1176C26.5932 90.4739 30.3312 90.9014 35.3152 91.4002C40.3704 91.899 44.1796 92.1483 46.7428 92.1483C48.238 92.1483 49.128 92.0415 49.4128 91.8277C49.84 91.5427 50.1604 91.0795 50.374 90.4383C50.6588 89.7257 50.8012 89.1201 50.8012 88.6213C50.8012 87.1962 50.1248 86.1274 48.772 85.4149C47.4192 84.6311 45.1052 83.7048 41.83 82.636C37.914 81.4247 34.6744 80.1778 32.1112 78.8952C29.548 77.6127 27.3052 75.6176 25.3828 72.9099C23.4604 70.2023 22.4992 66.6397 22.4992 62.2219C22.4992 59.0868 23.2112 56.0229 24.6352 53.0303C26.0592 49.9664 27.5188 47.9 29.014 46.8312C30.1532 46.0474 32.5028 45.2993 36.0628 44.5867C39.6228 43.8742 42.9692 43.5179 46.102 43.5179C54.0764 43.5179 60.5912 44.2661 65.6464 45.7624C65.5752 47.1875 65.326 49.147 64.8988 51.6408C64.5428 54.1347 64.1512 56.4148 63.724 58.4811L61.2676 58.3743C52.0116 57.733 46.102 57.4123 43.5388 57.4123C42.4708 57.4123 41.8656 57.448 41.7232 57.5192C41.4384 57.6617 41.1892 57.9824 40.9756 58.4811C40.762 58.9799 40.6552 59.5499 40.6552 60.1912Z" fill="#424651"/>
<path opacity="0.65" d="M89 69.0267H0V84.6133H89V69.0267Z" fill="#F56161"/>
</svg>
